<svg width="348" height="109" viewBox="0 0 348 109" fill="none" xmlns="http://www.w3.org/2000/svg">
<rect x="57.1572" y="105.207" width="290" height="3" rx="1.5" fill="#6C6C6C"/>
<path fill-rule="evenodd" clip-rule="evenodd" d="M38.3217 106.207V67.8739L80.8343 20.5772L105.157 47.6373C104.637 43.169 103.585 38.8679 102.07 34.8022L80.8343 11.1769L36.7806 60.2473C35.8241 61.3115 34.4956 61.9618 33.0077 61.9618C30.0849 61.9618 27.6936 59.3014 27.6936 56.0497C27.6936 54.3943 28.2781 52.9163 29.2347 51.8521L72.3725 3.85977C66.3112 1.36979 59.6948 0 52.7665 0C23.6244 0 0 24.2349 0 54.1302C0 78.8875 16.2017 99.7629 38.3217 106.207Z" fill="#32AFE6"/>
<path d="M89.6852 68.2872C92.5652 68.2872 94.7252 69.1192 96.1652 70.7832C97.6052 72.4152 98.3252 74.7512 98.3252 77.7912V94.2072H88.7732V78.9432C88.7732 77.8552 88.5012 76.9912 87.9572 76.3512C87.4452 75.6792 86.7092 75.3432 85.7492 75.3432C84.6292 75.3432 83.7172 75.7272 83.0132 76.4952C82.3092 77.2632 81.9572 78.2072 81.9572 79.3272V94.2072H72.4052V78.9432C72.4052 77.8552 72.1332 76.9912 71.5892 76.3512C71.0772 75.6792 70.3412 75.3432 69.3812 75.3432C68.2612 75.3432 67.3492 75.7272 66.6452 76.4952C65.9412 77.2632 65.5892 78.2072 65.5892 79.3272V94.2072H56.0372V68.8632H63.8612L64.4852 72.6552C65.4452 71.3112 66.7092 70.2552 68.2772 69.4872C69.8772 68.6872 71.5572 68.2872 73.3172 68.2872C77.1252 68.2872 79.6852 69.7432 80.9972 72.6552C81.9892 71.3112 83.2532 70.2552 84.7892 69.4872C86.3572 68.6872 87.9892 68.2872 89.6852 68.2872ZM116.565 68.2872C120.437 68.2872 123.589 68.9432 126.021 70.2552C128.453 71.5352 129.669 73.6312 129.669 76.5432V86.4312C129.669 86.9752 129.797 87.4232 130.053 87.7752C130.309 88.1272 130.693 88.3032 131.205 88.3032H132.933V93.8232C132.837 93.8872 132.581 93.9992 132.165 94.1592C131.781 94.2872 131.221 94.4152 130.485 94.5432C129.749 94.7032 128.901 94.7832 127.941 94.7832C126.085 94.7832 124.549 94.5112 123.333 93.9672C122.149 93.3912 121.333 92.6072 120.885 91.6152C119.669 92.5752 118.309 93.3432 116.805 93.9192C115.301 94.4952 113.541 94.7832 111.525 94.7832C105.573 94.7832 102.597 92.4152 102.597 87.6792C102.597 85.2152 103.253 83.3432 104.565 82.0632C105.909 80.7512 107.829 79.8552 110.325 79.3752C112.821 78.8952 116.085 78.6552 120.117 78.6552V77.4072C120.117 76.4152 119.765 75.6632 119.061 75.1512C118.389 74.6392 117.509 74.3832 116.421 74.3832C115.429 74.3832 114.565 74.5592 113.829 74.9112C113.125 75.2632 112.773 75.8232 112.773 76.5912V76.7832H103.365C103.333 76.6232 103.317 76.3992 103.317 76.1112C103.317 73.7112 104.453 71.8072 106.725 70.3992C109.029 68.9912 112.309 68.2872 116.565 68.2872ZM120.117 83.1672C117.397 83.1672 115.381 83.4712 114.069 84.0792C112.789 84.6552 112.149 85.4392 112.149 86.4312C112.149 88.0312 113.237 88.8312 115.413 88.8312C116.661 88.8312 117.749 88.4952 118.677 87.8232C119.637 87.1512 120.117 86.3192 120.117 85.3272V83.1672ZM151.461 68.2392C152.197 68.2392 152.853 68.3352 153.429 68.5272C154.005 68.6872 154.293 68.7832 154.293 68.8152V76.8312H151.221C149.237 76.8312 147.797 77.3432 146.901 78.3672C146.037 79.3912 145.605 80.9112 145.605 82.9272V94.2072H136.053V68.8632H143.877L144.501 72.7032C145.077 71.2312 145.989 70.1272 147.237 69.3912C148.485 68.6232 149.893 68.2392 151.461 68.2392ZM166.867 94.2072L157.267 68.8632H167.539L172.195 84.6552H172.531L177.187 68.8632H186.595L176.899 94.2072H166.867ZM189.826 65.8872V59.4072H199.378V65.8872H189.826ZM189.826 94.2072V68.8632H199.378V94.2072H189.826Z" fill="#32AFE5"/>
<path d="M211.673 94.2072V59.8478H218.61V73.3712H232.204V59.8478H239.142V94.2072H232.204V79.1837H218.61V94.2072H211.673ZM244.767 81.4103C244.767 79.2228 245.306 77.1056 246.384 75.0587C247.462 73.0118 248.985 71.4493 250.954 70.3712C252.938 69.2931 255.149 68.754 257.587 68.754C261.353 68.754 264.438 69.9806 266.845 72.4337C269.251 74.8712 270.454 77.9572 270.454 81.6915C270.454 85.4572 269.235 88.5822 266.798 91.0665C264.376 93.5353 261.321 94.7697 257.634 94.7697C255.353 94.7697 253.173 94.254 251.095 93.2228C249.032 92.1915 247.462 90.6837 246.384 88.6993C245.306 86.6993 244.767 84.2697 244.767 81.4103ZM251.517 81.7618C251.517 84.2306 252.103 86.1212 253.274 87.4337C254.446 88.7462 255.892 89.4025 257.61 89.4025C259.329 89.4025 260.767 88.7462 261.923 87.4337C263.095 86.1212 263.681 84.215 263.681 81.715C263.681 79.2775 263.095 77.4025 261.923 76.09C260.767 74.7775 259.329 74.1212 257.61 74.1212C255.892 74.1212 254.446 74.7775 253.274 76.09C252.103 77.4025 251.517 79.2931 251.517 81.7618ZM275.024 95.8478L282.548 96.7618C282.673 97.6368 282.962 98.2384 283.415 98.5665C284.04 99.0353 285.024 99.2697 286.368 99.2697C288.087 99.2697 289.376 99.0118 290.235 98.4962C290.813 98.1525 291.251 97.5978 291.548 96.8322C291.751 96.2853 291.853 95.2775 291.853 93.8087V90.1759C289.884 92.8634 287.399 94.2072 284.399 94.2072C281.056 94.2072 278.407 92.7931 276.454 89.965C274.923 87.7306 274.157 84.9493 274.157 81.6212C274.157 77.4493 275.157 74.2618 277.157 72.0587C279.173 69.8556 281.673 68.754 284.657 68.754C287.735 68.754 290.274 70.1056 292.274 72.8087V69.3165H298.438V91.6525C298.438 94.59 298.196 96.7853 297.712 98.2384C297.228 99.6915 296.548 100.832 295.673 101.66C294.798 102.488 293.626 103.137 292.157 103.606C290.704 104.074 288.86 104.309 286.626 104.309C282.407 104.309 279.415 103.582 277.649 102.129C275.884 100.692 275.001 98.8634 275.001 96.6447C275.001 96.4259 275.009 96.1603 275.024 95.8478ZM280.907 81.2462C280.907 83.8868 281.415 85.8243 282.431 87.0587C283.462 88.2775 284.728 88.8868 286.228 88.8868C287.837 88.8868 289.196 88.2618 290.306 87.0118C291.415 85.7462 291.97 83.879 291.97 81.4103C291.97 78.8322 291.438 76.9181 290.376 75.6681C289.313 74.4181 287.97 73.7931 286.345 73.7931C284.767 73.7931 283.462 74.4103 282.431 75.6447C281.415 76.8634 280.907 78.7306 280.907 81.2462ZM309.899 76.9103L303.923 75.8322C304.595 73.4259 305.751 71.6447 307.392 70.4884C309.032 69.3322 311.47 68.754 314.704 68.754C317.642 68.754 319.829 69.1056 321.267 69.8087C322.704 70.4962 323.712 71.379 324.29 72.4572C324.884 73.5197 325.181 75.4806 325.181 78.34L325.11 86.0275C325.11 88.215 325.212 89.8322 325.415 90.879C325.634 91.9103 326.032 93.0197 326.61 94.2072H320.095C319.923 93.7697 319.712 93.1212 319.462 92.2618C319.353 91.8712 319.274 91.6134 319.228 91.4884C318.103 92.5822 316.899 93.4025 315.618 93.9493C314.337 94.4962 312.97 94.7697 311.517 94.7697C308.954 94.7697 306.931 94.0743 305.446 92.6837C303.978 91.2931 303.243 89.5353 303.243 87.4103C303.243 86.004 303.579 84.754 304.251 83.6603C304.923 82.5509 305.86 81.7072 307.063 81.129C308.282 80.5353 310.032 80.0197 312.313 79.5822C315.392 79.004 317.524 78.465 318.712 77.965V77.3087C318.712 76.0431 318.399 75.1447 317.774 74.6134C317.149 74.0665 315.97 73.7931 314.235 73.7931C313.063 73.7931 312.149 74.0275 311.493 74.4962C310.837 74.9493 310.306 75.754 309.899 76.9103ZM318.712 82.254C317.868 82.5353 316.532 82.8712 314.704 83.2618C312.876 83.6525 311.681 84.0353 311.118 84.4103C310.259 85.0197 309.829 85.7931 309.829 86.7306C309.829 87.6525 310.173 88.4493 310.86 89.1212C311.548 89.7931 312.423 90.129 313.485 90.129C314.673 90.129 315.806 89.7384 316.884 88.9572C317.681 88.3634 318.204 87.6368 318.454 86.7775C318.626 86.215 318.712 85.1447 318.712 83.5665V82.254ZM338.001 94.2072H331.415V69.3165H337.532V72.8556C338.579 71.1837 339.517 70.0822 340.345 69.5509C341.188 69.0197 342.142 68.754 343.204 68.754C344.704 68.754 346.149 69.1681 347.54 69.9962L345.501 75.7384C344.392 75.0197 343.36 74.6603 342.407 74.6603C341.485 74.6603 340.704 74.9181 340.063 75.4337C339.423 75.9337 338.915 76.8478 338.54 78.1759C338.181 79.504 338.001 82.2853 338.001 86.5197V94.2072Z" fill="#6C6C6C"/>
</svg>
